<mxfile host="app.diagrams.net" modified="2024-06-17T14:38:47.953Z" agent="Mozilla/5.0 (Windows NT 10.0; Win64; x64) AppleWebKit/537.36 (KHTML, like Gecko) Chrome/112.0.0.0 YaBrowser/23.5.3.904 Yowser/2.5 Safari/537.36" etag="Lr2MYVDU45YqSSQBv8Gd" version="24.5.4" type="device">
  <diagram name="Страница — 1" id="bWHywCXaXaAxPZdSSDz7">
    <mxGraphModel dx="1216" dy="696" grid="1" gridSize="10" guides="1" tooltips="1" connect="1" arrows="1" fold="1" page="1" pageScale="1" pageWidth="827" pageHeight="1169" math="0" shadow="0">
      <root>
        <mxCell id="0" />
        <mxCell id="1" parent="0" />
        <mxCell id="TZSjdZgy6kPpEdIloy_d-3" style="edgeStyle=none;curved=1;rounded=0;orthogonalLoop=1;jettySize=auto;html=1;exitX=0.5;exitY=1;exitDx=0;exitDy=0;entryX=0.5;entryY=0;entryDx=0;entryDy=0;fontSize=12;startSize=8;endSize=8;" parent="1" source="UPfc0yu6couf6mDaqN8h-1" target="TZSjdZgy6kPpEdIloy_d-2" edge="1">
          <mxGeometry relative="1" as="geometry">
            <mxPoint x="140" y="160" as="sourcePoint" />
          </mxGeometry>
        </mxCell>
        <mxCell id="TZSjdZgy6kPpEdIloy_d-5" style="edgeStyle=none;curved=1;rounded=0;orthogonalLoop=1;jettySize=auto;html=1;exitX=0.5;exitY=1;exitDx=0;exitDy=0;entryX=0.5;entryY=0;entryDx=0;entryDy=0;fontSize=12;startSize=8;endSize=8;" parent="1" source="TZSjdZgy6kPpEdIloy_d-2" target="TZSjdZgy6kPpEdIloy_d-4" edge="1">
          <mxGeometry relative="1" as="geometry" />
        </mxCell>
        <mxCell id="TZSjdZgy6kPpEdIloy_d-2" value="Получить номер" style="rounded=0;whiteSpace=wrap;html=1;" parent="1" vertex="1">
          <mxGeometry x="40" y="200" width="160" height="60" as="geometry" />
        </mxCell>
        <mxCell id="TZSjdZgy6kPpEdIloy_d-7" style="edgeStyle=none;curved=1;rounded=0;orthogonalLoop=1;jettySize=auto;html=1;exitX=0.5;exitY=1;exitDx=0;exitDy=0;fontSize=12;startSize=8;endSize=8;entryX=0.5;entryY=0;entryDx=0;entryDy=0;" parent="1" source="TZSjdZgy6kPpEdIloy_d-4" target="TZSjdZgy6kPpEdIloy_d-6" edge="1">
          <mxGeometry relative="1" as="geometry">
            <mxPoint x="139.57894736842104" y="390" as="targetPoint" />
          </mxGeometry>
        </mxCell>
        <mxCell id="TZSjdZgy6kPpEdIloy_d-4" value="Открыть сайт" style="rounded=0;whiteSpace=wrap;html=1;" parent="1" vertex="1">
          <mxGeometry x="40" y="300" width="160" height="60" as="geometry" />
        </mxCell>
        <mxCell id="TZSjdZgy6kPpEdIloy_d-9" style="edgeStyle=none;curved=1;rounded=0;orthogonalLoop=1;jettySize=auto;html=1;exitX=0.5;exitY=1;exitDx=0;exitDy=0;entryX=0.5;entryY=0;entryDx=0;entryDy=0;fontSize=12;startSize=8;endSize=8;" parent="1" source="TZSjdZgy6kPpEdIloy_d-6" target="TZSjdZgy6kPpEdIloy_d-8" edge="1">
          <mxGeometry relative="1" as="geometry" />
        </mxCell>
        <mxCell id="TZSjdZgy6kPpEdIloy_d-6" value="Найти поле ввода" style="rounded=0;whiteSpace=wrap;html=1;" parent="1" vertex="1">
          <mxGeometry x="40" y="400" width="160" height="60" as="geometry" />
        </mxCell>
        <mxCell id="TZSjdZgy6kPpEdIloy_d-11" style="edgeStyle=orthogonalEdgeStyle;rounded=0;orthogonalLoop=1;jettySize=auto;html=1;exitX=0.5;exitY=1;exitDx=0;exitDy=0;entryX=0.5;entryY=0;entryDx=0;entryDy=0;fontSize=12;startSize=8;endSize=8;" parent="1" source="TZSjdZgy6kPpEdIloy_d-8" target="TZSjdZgy6kPpEdIloy_d-10" edge="1">
          <mxGeometry relative="1" as="geometry" />
        </mxCell>
        <mxCell id="TZSjdZgy6kPpEdIloy_d-8" value="Отправить запрос" style="rounded=0;whiteSpace=wrap;html=1;" parent="1" vertex="1">
          <mxGeometry x="40" y="500" width="160" height="60" as="geometry" />
        </mxCell>
        <mxCell id="TZSjdZgy6kPpEdIloy_d-13" style="edgeStyle=none;curved=1;rounded=0;orthogonalLoop=1;jettySize=auto;html=1;exitX=0.5;exitY=1;exitDx=0;exitDy=0;entryX=0.5;entryY=0;entryDx=0;entryDy=0;fontSize=12;startSize=8;endSize=8;" parent="1" source="TZSjdZgy6kPpEdIloy_d-10" target="TZSjdZgy6kPpEdIloy_d-12" edge="1">
          <mxGeometry relative="1" as="geometry" />
        </mxCell>
        <mxCell id="TZSjdZgy6kPpEdIloy_d-10" value="Найти данные о модели&amp;nbsp;" style="rounded=0;whiteSpace=wrap;html=1;" parent="1" vertex="1">
          <mxGeometry x="250" y="80" width="160" height="60" as="geometry" />
        </mxCell>
        <mxCell id="TZSjdZgy6kPpEdIloy_d-15" style="edgeStyle=none;curved=1;rounded=0;orthogonalLoop=1;jettySize=auto;html=1;exitX=0.5;exitY=1;exitDx=0;exitDy=0;fontSize=12;startSize=8;endSize=8;" parent="1" source="TZSjdZgy6kPpEdIloy_d-12" edge="1">
          <mxGeometry relative="1" as="geometry">
            <mxPoint x="330" y="300" as="targetPoint" />
          </mxGeometry>
        </mxCell>
        <mxCell id="TZSjdZgy6kPpEdIloy_d-12" value="Получить данные" style="rounded=0;whiteSpace=wrap;html=1;" parent="1" vertex="1">
          <mxGeometry x="250" y="200" width="160" height="60" as="geometry" />
        </mxCell>
        <mxCell id="UPfc0yu6couf6mDaqN8h-1" value="НАЧАЛО" style="rounded=1;whiteSpace=wrap;html=1;" vertex="1" parent="1">
          <mxGeometry x="40" y="110" width="160" height="60" as="geometry" />
        </mxCell>
        <mxCell id="UPfc0yu6couf6mDaqN8h-2" value="КОНЕЦ" style="rounded=1;whiteSpace=wrap;html=1;" vertex="1" parent="1">
          <mxGeometry x="250" y="300" width="160" height="60" as="geometry" />
        </mxCell>
      </root>
    </mxGraphModel>
  </diagram>
</mxfile>
